HIERARCHY
ROOT Hips
{
  OFFSET 5.84602e-005 68.8428 3.50346
  CHANNELS 6 Xposition Yposition Zposition Zrotation Xrotation Yrotation
  JOINT Spine
  {
    OFFSET 0 8.597 -4.6522
    CHANNELS 3 Zrotation Xrotation Yrotation
    JOINT Spine1
    {
      OFFSET 0 7.8454 0.4098
      CHANNELS 3 Zrotation Xrotation Yrotation
      JOINT Spine2
      {
        OFFSET 0 9.7078 -2.1609
        CHANNELS 3 Zrotation Xrotation Yrotation
        JOINT Neck
        {
          OFFSET 0 21.8761 -0.4549
          CHANNELS 3 Zrotation Xrotation Yrotation
          JOINT Head
          {
            OFFSET 0 12.3537 3.3602
            CHANNELS 3 Zrotation Xrotation Yrotation
            End Site
            {
              OFFSET 0.0001 18.9506 0.5657
            }
          }
        }
        JOINT LeftShoulder
        {
          OFFSET 2.2086 21.1115 7.2329
          CHANNELS 3 Zrotation Xrotation Yrotation
          JOINT LeftArm
          {
            OFFSET 13.1193 3.0282 -4.8998
            CHANNELS 3 Zrotation Xrotation Yrotation
            JOINT LeftForeArm
            {
              OFFSET 27.4081 -0.0973053 -0.2375
              CHANNELS 3 Zrotation Xrotation Yrotation
              JOINT LeftHand
              {
                OFFSET 22.8641 0.0662994 -0.1369
                CHANNELS 3 Zrotation Xrotation Yrotation
                JOINT LeftHandIndex1
                {
                  OFFSET 8.8614 0.775009 2.4612
                  CHANNELS 3 Zrotation Xrotation Yrotation
                  JOINT LeftHandIndex2
                  {
                    OFFSET 3.3146 -0.808304 0.5841
                    CHANNELS 3 Zrotation Xrotation Yrotation
                    JOINT LeftHandIndex3
                    {
                      OFFSET 2.2628 -0.552002 0.3989
                      CHANNELS 3 Zrotation Xrotation Yrotation
                      End Site
                      {
                        OFFSET 1.6102 -0.4807 0.2612
                      }
                    }
                  }
                }
                JOINT LeftHandMiddle1
                {
                  OFFSET 8.9937 0.895004 0.2143
                  CHANNELS 3 Zrotation Xrotation Yrotation
                  JOINT LeftHandMiddle2
                  {
                    OFFSET 4.0984 0.0113983 -0.0242
                    CHANNELS 3 Zrotation Xrotation Yrotation
                    JOINT LeftHandMiddle3
                    {
                      OFFSET 2.2716 0.00689697 -0.0138001
                      CHANNELS 3 Zrotation Xrotation Yrotation
                      End Site
                      {
                        OFFSET 2.0404 -0.1441 0.0027
                      }
                    }
                  }
                }
                JOINT LeftHandRing1
                {
                  OFFSET 8.5234 0.597198 -2.0164
                  CHANNELS 3 Zrotation Xrotation Yrotation
                  JOINT LeftHandRing2
                  {
                    OFFSET 3.7188 -0.188293 -0.2328
                    CHANNELS 3 Zrotation Xrotation Yrotation
                    JOINT LeftHandRing3
                    {
                      OFFSET 2.1191 -0.106598 -0.1332
                      CHANNELS 3 Zrotation Xrotation Yrotation
                      End Site
                      {
                        OFFSET 1.8737 -0.2304 -0.0886
                      }
                    }
                  }
                }
                JOINT LeftHandPinky1
                {
                  OFFSET 7.9094 -0.601089 -3.4825
                  CHANNELS 3 Zrotation Xrotation Yrotation
                  JOINT LeftHandPinky2
                  {
                    OFFSET 2.2874 -0.477005 -0.6314
                    CHANNELS 3 Zrotation Xrotation Yrotation
                    JOINT LeftHandPinky3
                    {
                      OFFSET 1.6774 -0.349396 -0.4633
                      CHANNELS 3 Zrotation Xrotation Yrotation
                      End Site
                      {
                        OFFSET 1.4888 -0.4091 -0.3416
                      }
                    }
                  }
                }
                JOINT LeftHandThumb1
                {
                  OFFSET 1.833 -1.3875 1.3896
                  CHANNELS 3 Zrotation Xrotation Yrotation
                  JOINT LeftHandThumb2
                  {
                    OFFSET 3.4129 -1.121 2.5732
                    CHANNELS 3 Zrotation Xrotation Yrotation
                    JOINT LeftHandThumb3
                    {
                      OFFSET 2.2474 -0.804199 1.6192
                      CHANNELS 3 Zrotation Xrotation Yrotation
                      End Site
                      {
                        OFFSET 1.6527 -0.5689 1.1317
                      }
                    }
                  }
                }
              }
            }
          }
        }
        JOINT RightShoulder
        {
          OFFSET -2.2086 21.1115 7.2329
          CHANNELS 3 Zrotation Xrotation Yrotation
          JOINT RightArm
          {
            OFFSET -13.1216 3.0287 -4.9007
            CHANNELS 3 Zrotation Xrotation Yrotation
            JOINT RightForeArm
            {
              OFFSET -27.4081 -0.0973053 -0.2375
              CHANNELS 3 Zrotation Xrotation Yrotation
              JOINT RightHand
              {
                OFFSET -22.8641 0.0664063 -0.1369
                CHANNELS 3 Zrotation Xrotation Yrotation
                JOINT RightHandIndex1
                {
                  OFFSET -8.8614 0.774994 2.4612
                  CHANNELS 3 Zrotation Xrotation Yrotation
                  JOINT RightHandIndex2
                  {
                    OFFSET -3.3146 -0.808304 0.5841
                    CHANNELS 3 Zrotation Xrotation Yrotation
                    JOINT RightHandIndex3
                    {
                      OFFSET -2.2628 -0.552002 0.3989
                      CHANNELS 3 Zrotation Xrotation Yrotation
                      End Site
                      {
                        OFFSET -1.6102 -0.4807 0.2612
                      }
                    }
                  }
                }
                JOINT RightHandMiddle1
                {
                  OFFSET -8.9937 0.894989 0.2143
                  CHANNELS 3 Zrotation Xrotation Yrotation
                  JOINT RightHandMiddle2
                  {
                    OFFSET -4.0984 0.0113983 -0.0242
                    CHANNELS 3 Zrotation Xrotation Yrotation
                    JOINT RightHandMiddle3
                    {
                      OFFSET -2.2716 0.00691223 -0.0138001
                      CHANNELS 3 Zrotation Xrotation Yrotation
                      End Site
                      {
                        OFFSET -2.0404 -0.1441 0.0027
                      }
                    }
                  }
                }
                JOINT RightHandRing1
                {
                  OFFSET -8.5234 0.597198 -2.0164
                  CHANNELS 3 Zrotation Xrotation Yrotation
                  JOINT RightHandRing2
                  {
                    OFFSET -3.7188 -0.188309 -0.2328
                    CHANNELS 3 Zrotation Xrotation Yrotation
                    JOINT RightHandRing3
                    {
                      OFFSET -2.1191 -0.106598 -0.1332
                      CHANNELS 3 Zrotation Xrotation Yrotation
                      End Site
                      {
                        OFFSET -1.8737 -0.2304 -0.0886
                      }
                    }
                  }
                }
                JOINT RightHandPinky1
                {
                  OFFSET -7.9094 -0.601105 -3.4825
                  CHANNELS 3 Zrotation Xrotation Yrotation
                  JOINT RightHandPinky2
                  {
                    OFFSET -2.2874 -0.477005 -0.6314
                    CHANNELS 3 Zrotation Xrotation Yrotation
                    JOINT RightHandPinky3
                    {
                      OFFSET -1.6774 -0.349396 -0.4633
                      CHANNELS 3 Zrotation Xrotation Yrotation
                      End Site
                      {
                        OFFSET -1.4888 -0.4091 -0.3416
                      }
                    }
                  }
                }
                JOINT RightHandThumb1
                {
                  OFFSET -1.833 -1.38751 1.3896
                  CHANNELS 3 Zrotation Xrotation Yrotation
                  JOINT RightHandThumb2
                  {
                    OFFSET -3.41299 -1.12099 2.5732
                    CHANNELS 3 Zrotation Xrotation Yrotation
                    JOINT RightHandThumb3
                    {
                      OFFSET -2.24741 -0.804108 1.6192
                      CHANNELS 3 Zrotation Xrotation Yrotation
                      End Site
                      {
                        OFFSET -1.6527 -0.5689 1.1317
                      }
                    }
                  }
                }
              }
            }
          }
        }
      }
    }
  }
  JOINT RightUpLeg
  {
    OFFSET -9.1966 3.8861 -0.7581
    CHANNELS 3 Zrotation Xrotation Yrotation
    JOINT RightLeg
    {
      OFFSET -0.7359 -41.0265 0
      CHANNELS 3 Zrotation Xrotation Yrotation
      JOINT RightFoot
      {
        OFFSET 0 -40.2855 0
        CHANNELS 3 Zrotation Xrotation Yrotation
        JOINT RightToeBase
        {
          OFFSET 0 -5.6122 11.7359
          CHANNELS 3 Zrotation Xrotation Yrotation
          End Site
          {
            OFFSET 0 0 7.8731
          }
        }
      }
    }
  }
  JOINT LeftUpLeg
  {
    OFFSET 9.1965 3.8864 -0.7581
    CHANNELS 3 Zrotation Xrotation Yrotation
    JOINT LeftLeg
    {
      OFFSET 0.7359 -41.0268 0
      CHANNELS 3 Zrotation Xrotation Yrotation
      JOINT LeftFoot
      {
        OFFSET 0 -40.2855 0
        CHANNELS 3 Zrotation Xrotation Yrotation
        JOINT LeftToeBase
        {
          OFFSET 0 -5.6122 11.7359
          CHANNELS 3 Zrotation Xrotation Yrotation
          End Site
          {
            OFFSET 0 0 7.8731
          }
        }
      }
    }
  }
}
MOTION
Frames:	6
Frame Time:	0.0333333
0.000435279 6.94437 -6.2086 0 85.7025 -0 -0.309991 0.0826785 -0.108324 -0.619824 0.165962 -0.216199 -0.619825 0.165937 -0.216199 24.849 14.5839 -6.65303 19.4399 21.8116 -7.47377 -8.00265 -0.194467 8.45679e-007 -78.9631 -9.43868 -63.5196 49.406 -25.3943 -110.188 -7.00033 7.19967 -1.4473e-005 5.62409e-007 6.25733e-007 -1.14203e-007 1.12482e-006 1.25147e-006 -2.28406e-007 1.12482e-006 1.25147e-006 -2.28406e-007 5.62409e-007 6.25733e-007 -1.14203e-007 -0.0146174 -8.80278e-005 -3.02263e-006 1.05644e-006 5.06122e-007 3.27317e-007 5.62409e-007 6.25733e-007 -1.14203e-007 -0.0187404 -0.00117358 5.96838e-005 1.12479e-006 1.2515e-006 -2.28212e-007 5.62409e-007 6.25733e-007 -1.14203e-007 -0.0122335 -0.00323952 0.000683542 1.1248e-006 1.25148e-006 -2.28303e-007 5.62409e-007 6.25733e-007 -1.14203e-007 1.12482e-006 1.25147e-006 -2.28406e-007 1.12482e-006 1.25147e-006 -2.28406e-007 7.99916 -0.194704 1.61073e-007 78.9592 -9.44351 63.5163 -49.4135 -25.3858 110.161 6.99662 7.19945 4.81253e-006 1.18833e-006 -9.46755e-008 -1.90854e-007 1.82984e-006 4.52154e-007 -2.77152e-007 1.18833e-006 -9.46756e-008 -1.90854e-007 1.18833e-006 -9.46755e-008 -1.90854e-007 0.0150058 -9.01984e-005 2.95935e-006 1.18834e-006 -9.47006e-008 -1.90843e-007 1.18833e-006 -9.46755e-008 -1.90854e-007 0.0189883 -0.00119084 -5.94394e-005 1.18833e-006 -9.47068e-008 -1.90851e-007 1.18833e-006 -9.46755e-008 -1.90854e-007 0.0122862 -0.00325257 -0.000682373 1.18833e-006 -9.46895e-008 -1.90878e-007 1.18833e-006 -9.46755e-008 -1.90854e-007 1.82984e-006 4.52154e-007 -2.77152e-007 1.18833e-006 -9.46756e-008 -1.90854e-007 -118.833 -25.7875 -105.607 176.794 45.1283 177.065 4.66746 16.617 -8.47038 -1.1053e-006 -1.00111e-006 3.35768e-007 118.829 -25.8021 105.608 -176.705 45.1345 -177.101 -4.67502 16.6032 8.46629 -8.57873e-006 -8.56903e-006 5.60557e-006 
0.000436247 6.91425 -6.19075 0 85.458 -0 -0.310061 0.144485 -0.107298 -0.619855 0.28958 -0.213814 -0.619854 0.289573 -0.213814 24.8485 14.5838 -6.65319 19.4399 21.8116 -7.47376 -8.00305 -0.194282 -0.000112596 -78.963 -9.43869 -63.5196 49.4059 -25.3943 -110.188 -7.00034 7.19966 1.07745e-005 1.18624e-031 4.27387e-015 -1.59028e-015 -7.95139e-016 4.29872e-015 -2.38542e-015 -7.95139e-016 4.37326e-015 -7.95139e-016 1.18624e-031 4.27387e-015 -1.59028e-015 -0.0145945 -8.93067e-005 -6.57698e-006 1.78906e-015 2.80783e-015 -1.59028e-014 1.18624e-031 4.27387e-015 -1.59028e-015 -0.0187502 -0.00117691 6.08661e-005 3.97569e-016 -2.11209e-015 7.95139e-016 1.18624e-031 4.27387e-015 -1.59028e-015 -0.0122748 -0.00325046 0.000679487 2.5842e-015 4.4975e-015 -1.43125e-014 1.18624e-031 4.27387e-015 -1.59028e-015 -7.95139e-016 4.29872e-015 -2.38542e-015 -7.95139e-016 4.37326e-015 -7.95139e-016 7.99876 -0.19456 -0.000160761 78.9592 -9.44349 63.5163 -49.4135 -25.3858 110.161 6.99662 7.19945 -9.73085e-006 3.70913e-006 -9.86726e-007 3.09738e-006 1.2886e-006 -6.26005e-007 5.81906e-006 3.2568e-006 8.43072e-007 3.21922e-006 3.70913e-006 -9.86726e-007 3.09738e-006 0.0149929 -9.09862e-005 4.45702e-006 2.47128e-006 9.9917e-007 -3.64361e-007 3.70913e-006 -9.86726e-007 3.09738e-006 0.0190002 -0.00119144 -6.0809e-005 2.47128e-006 9.99157e-007 -3.64419e-007 3.70913e-006 -9.86726e-007 3.09738e-006 0.012263 -0.00324625 -0.000683075 2.47126e-006 9.99187e-007 -3.64406e-007 3.70913e-006 -9.86726e-007 3.09738e-006 1.2886e-006 -6.26005e-007 5.81906e-006 3.2568e-006 8.43072e-007 3.21922e-006 -118.579 -25.9426 -105.348 176.793 45.1282 177.069 4.46668 16.5644 -8.3832 1.49698e-007 -3.3184e-006 7.00537e-007 118.575 -25.9584 105.348 -176.705 45.1347 -177.105 -4.47314 16.5415 8.378 7.95139e-016 -3.18055e-015 2.38542e-015 
0.000439119 6.8842 -6.17277 0 85.2134 -0 -0.310262 0.206383 -0.106314 -0.620146 0.413338 -0.211512 -0.620147 0.413321 -0.211512 24.8487 14.5836 -6.65309 19.4399 21.8116 -7.47377 -8.00283 -0.194341 -4.1387e-005 -78.963 -9.43867 -63.5196 49.406 -25.3943 -110.188 -7.00034 7.19967 1.30372e-006 5.62534e-007 6.25636e-007 -1.13566e-007 5.62534e-007 6.25636e-007 -1.13566e-007 5.62534e-007 6.25636e-007 -1.13566e-007 5.62534e-007 6.25636e-007 -1.13566e-007 -0.0146042 -8.90711e-005 5.31362e-007 5.62522e-007 6.2565e-007 -1.13487e-007 5.62534e-007 6.25636e-007 -1.13566e-007 -0.018759 -0.00117734 6.23233e-005 5.62518e-007 6.25653e-007 -1.13469e-007 5.62534e-007 6.25636e-007 -1.13566e-007 -0.0122677 -0.00324441 0.000676495 5.62525e-007 6.25642e-007 -1.13514e-007 5.62534e-007 6.25636e-007 -1.13566e-007 5.62534e-007 6.25636e-007 -1.13566e-007 5.62534e-007 6.25636e-007 -1.13566e-007 7.99899 -0.194596 -7.63977e-005 78.9592 -9.4435 63.5163 -49.4135 -25.3858 110.161 6.99661 7.19945 -2.03303e-005 1.82976e-006 4.52501e-007 -2.77984e-007 2.47116e-006 9.99453e-007 -3.65006e-007 1.73531e-006 -7.35853e-007 -2.94899e-007 1.82976e-006 4.52501e-007 -2.77984e-007 0.0150005 -9.10109e-005 2.74501e-006 1.7353e-006 -7.35892e-007 -2.94804e-007 1.82976e-006 4.52501e-007 -2.77984e-007 0.0189888 -0.00118873 -6.52317e-005 1.73529e-006 -7.359e-007 -2.94795e-007 1.82976e-006 4.52501e-007 -2.77984e-007 0.0122695 -0.00324625 -0.000678128 3.03369e-006 -1.35953e-006 5.5218e-006 1.82976e-006 4.52501e-007 -2.77984e-007 2.47116e-006 9.99453e-007 -3.65006e-007 1.73531e-006 -7.35853e-007 -2.94899e-007 -118.323 -26.0968 -105.087 176.793 45.128 177.073 4.26603 16.5114 -8.2963 -8.67562e-006 4.35552e-006 3.61582e-006 118.319 -26.1138 105.088 -176.705 45.1349 -177.108 -4.27142 16.4795 8.28991 -6.68624e-007 9.42362e-007 -1.1888e-006 
0.000441944 6.85423 -6.15468 0 84.9688 -0 -0.310424 0.268277 -0.105314 -0.620366 0.537146 -0.209177 -0.620366 0.537128 -0.209177 24.8486 14.5838 -6.65303 19.4399 21.8116 -7.47378 -8.00282 -0.194328 -3.70496e-005 -78.963 -9.43867 -63.5196 49.406 -25.3943 -110.188 -7.00033 7.19967 1.76299e-005 1.12519e-006 1.25117e-006 -2.26494e-007 2.37636e-006 1.2598e-007 -4.07959e-007 5.62596e-007 6.25586e-007 -1.13247e-007 1.12519e-006 1.25117e-006 -2.26494e-007 -0.0146157 -8.92857e-005 -6.97987e-006 5.62584e-007 6.256e-007 -1.13167e-007 1.12519e-006 1.25117e-006 -2.26494e-007 -0.0187538 -0.00117728 5.6219e-005 5.6258e-007 6.25603e-007 -1.1315e-007 1.12519e-006 1.25117e-006 -2.26494e-007 -0.0122605 -0.00324651 0.000669076 6.1565e-007 1.3699e-006 -6.62007e-007 1.12519e-006 1.25117e-006 -2.26494e-007 2.37636e-006 1.2598e-007 -4.07959e-007 5.62596e-007 6.25586e-007 -1.13247e-007 7.99899 -0.194586 -7.4173e-005 78.9592 -9.4435 63.5163 -49.4135 -25.3858 110.161 6.99663 7.19945 2.19579e-005 1.18836e-006 -9.4339e-008 -1.91015e-007 1.09402e-006 -1.2827e-006 -2.07257e-007 1.18836e-006 -9.4339e-008 -1.91015e-007 1.18836e-006 -9.4339e-008 -1.91015e-007 0.0149926 -9.16952e-005 7.17089e-006 2.49506e-006 -7.15385e-007 5.62346e-006 1.18836e-006 -9.4339e-008 -1.91015e-007 0.0189892 -0.00119211 -6.11582e-005 2.49561e-006 -7.15323e-007 5.62345e-006 1.18836e-006 -9.4339e-008 -1.91015e-007 0.0122856 -0.00325135 -0.000679324 1.18836e-006 -9.4353e-008 -1.91038e-007 1.18836e-006 -9.4339e-008 -1.91015e-007 1.09402e-006 -1.2827e-006 -2.07257e-007 1.18836e-006 -9.4339e-008 -1.91015e-007 -118.067 -26.2501 -104.826 176.794 45.1278 177.077 4.06553 16.4582 -8.20962 -6.67198e-007 -9.39746e-007 -1.19156e-006 118.063 -26.2681 104.826 -176.705 45.1352 -177.112 -4.06981 16.4173 8.20209 1.30391e-006 2.33607e-006 3.44687e-007 
0.000446704 6.82434 -6.13647 0 84.7241 -0 -0.310607 0.330221 -0.104318 -0.620628 0.661004 -0.206849 -0.620627 0.660992 -0.206849 24.8487 14.5838 -6.65302 19.4399 21.8116 -7.47378 -8.00273 -0.194375 -1.36634e-005 -78.963 -9.43869 -63.5196 49.406 -25.3943 -110.188 -7.00033 7.19967 1.76741e-005 -1.12532e-006 -1.25107e-006 2.25855e-007 -5.62658e-007 -6.25536e-007 1.12927e-007 1.25107e-006 -1.12532e-006 -1.82175e-007 -1.12532e-006 -1.25107e-006 2.25855e-007 -0.0146127 -9.08318e-005 -1.17782e-005 1.2511e-006 -1.12529e-006 -1.8232e-007 -1.12532e-006 -1.25107e-006 2.25855e-007 -0.0187435 -0.00117641 5.95321e-005 1.25111e-006 -1.12529e-006 -1.82372e-007 -1.12532e-006 -1.25107e-006 2.25855e-007 -0.0122316 -0.00324115 0.000672697 1.25108e-006 -1.1253e-006 -1.82332e-007 -1.12532e-006 -1.25107e-006 2.25855e-007 -5.62658e-007 -6.25536e-007 1.12927e-007 1.25107e-006 -1.12532e-006 -1.82175e-007 7.99908 -0.194624 -3.93807e-005 78.9592 -9.4435 63.5163 -49.4134 -25.3858 110.161 6.99661 7.19945 -1.26076e-005 1.18837e-006 -9.42267e-008 -1.91068e-007 1.09415e-006 -1.2826e-006 -2.06638e-007 1.18837e-006 -9.42267e-008 -1.91068e-007 1.18837e-006 -9.42267e-008 -1.91068e-007 0.0150007 -9.2694e-005 6.12051e-006 1.18837e-006 -9.42518e-008 -1.91057e-007 1.18837e-006 -9.42267e-008 -1.91068e-007 0.0189808 -0.00119229 -5.93044e-005 1.18837e-006 -9.42579e-008 -1.91065e-007 1.18837e-006 -9.42267e-008 -1.91068e-007 0.0122865 -0.00325285 -0.000678005 1.18837e-006 -9.42406e-008 -1.91092e-007 1.18837e-006 -9.42267e-008 -1.91068e-007 1.09415e-006 -1.2826e-006 -2.06638e-007 1.18837e-006 -9.42267e-008 -1.91068e-007 -117.809 -26.4023 -104.563 176.794 45.1277 177.08 3.8651 16.4047 -8.12312 6.2072e-006 -9.82743e-006 3.98818e-006 117.805 -26.4215 104.562 -176.705 45.1354 -177.116 -3.86831 16.3548 8.11452 -7.30354e-006 -1.20272e-005 3.67226e-007 
0.000448762 6.79453 -6.11814 0 84.4794 -0 -0.310757 0.392118 -0.103307 -0.62083 0.784848 -0.204493 -0.62083 0.784827 -0.204494 24.8487 14.5839 -6.65309 19.4399 21.8116 -7.47378 -8.00283 -0.194251 -2.83001e-005 -78.963 -9.43871 -63.5196 49.406 -25.3943 -110.188 -7.00034 7.19967 -3.21466e-006 -6.03464e-032 2.17421e-015 1.59028e-015 -7.95139e-016 2.09966e-015 1.59028e-015 5.96354e-016 -1.20513e-015 7.95139e-016 -6.03464e-032 2.17421e-015 1.59028e-015 -0.0146112 -8.74608e-005 -7.18692e-006 7.10363e-032 5.11871e-015 -7.95139e-016 -6.03464e-032 2.17421e-015 1.59028e-015 -0.0187474 -0.00117725 5.03672e-005 -1.19271e-015 -7.57867e-016 -7.95139e-016 -6.03464e-032 2.17421e-015 1.59028e-015 -0.0122652 -0.00324764 0.000671812 5.96354e-016 -5.86415e-015 -7.95139e-016 -6.03464e-032 2.17421e-015 1.59028e-015 -7.95139e-016 2.09966e-015 1.59028e-015 5.96354e-016 -1.20513e-015 7.95139e-016 7.99898 -0.194505 -8.96714e-005 78.9592 -9.4435 63.5163 -49.4135 -25.3858 110.161 6.99662 7.19945 -2.80617e-006 2.41536e-006 -1.90002e-006 5.60367e-006 1.94339e-006 -2.37004e-007 3.40323e-006 2.85007e-006 -7.36695e-007 1.53167e-005 2.41536e-006 -1.90002e-006 5.60367e-006 0.0149985 -9.26307e-005 -8.41547e-008 2.85184e-006 -7.34701e-007 1.53168e-005 2.41536e-006 -1.90002e-006 5.60367e-006 0.0189888 -0.00118994 -5.70632e-005 2.85245e-006 -7.34295e-007 1.53168e-005 2.41536e-006 -1.90002e-006 5.60367e-006 0.0122656 -0.00324571 -0.000683533 1.52916e-006 -1.1812e-007 9.50703e-006 2.41536e-006 -1.90002e-006 5.60367e-006 1.94339e-006 -2.37004e-007 3.40323e-006 2.85007e-006 -7.36695e-007 1.53167e-005 -117.551 -26.5536 -104.299 176.794 45.1274 177.084 3.66475 16.3508 -8.03689 -6.65373e-007 -9.35545e-007 -1.19587e-006 117.546 -26.5739 104.298 -176.705 45.1356 -177.12 -3.66703 16.2919 8.02725 1.33239e-006 -1.87187e-006 2.39028e-006 
